<svg xmlns="http://www.w3.org/2000/svg" version="1.1" xmlns:xlink="http://www.w3.org/1999/xlink" xmlns:svgjs="http://svgjs.dev/svgjs" width="1000" height="623" viewBox="0 0 1000 623"><g transform="matrix(1,0,0,1,-0.6060606060606233,0.2522267206477409)"><svg viewBox="0 0 396 247" data-background-color="#ffffff" preserveAspectRatio="xMidYMid meet" height="623" width="1000" xmlns="http://www.w3.org/2000/svg" xmlns:xlink="http://www.w3.org/1999/xlink"><g id="tight-bounds" transform="matrix(1,0,0,1,0.2400000000000091,-0.09999999999999432)"><svg viewBox="0 0 395.52 247.2" height="247.2" width="395.52"><g><svg></svg></g><g><svg viewBox="0 0 395.52 247.2" height="247.2" width="395.52"><g transform="matrix(1,0,0,1,130.14666028708132,47.215199999999996)"><svg viewBox="0 0 135.22667942583732 152.7696" height="152.7696" width="135.22667942583732"><g><svg viewBox="0 0 135.22667942583732 152.7696" height="152.7696" width="135.22667942583732"><g><svg viewBox="0 0 135.22667942583732 152.7696" height="152.7696" width="135.22667942583732"><g><svg viewBox="0 0 135.22667942583732 152.7696" height="152.7696" width="135.22667942583732"><g id="textblocktransform"><svg viewBox="0 0 135.22667942583732 152.7696" height="152.7696" width="135.22667942583732" id="textblock"><g><svg viewBox="0 0 135.22667942583732 152.7696" height="152.7696" width="135.22667942583732"><g transform="matrix(1,0,0,1,0,0)"><svg width="135.22667942583732" viewBox="-0.4000000059604645 -36.29999923706055 37 41.79999923706055" height="152.7696" data-palette-color="#f9e17e"><path d="M27.9-8.8L27.9-8.8Q28.25-8.8 28.25-8.45 28.25-8.1 27.7-7.85L27.7-7.85Q24.3-6.15 19.7-6L19.7-6Q17.3-1.4 17.25-1.28 17.2-1.15 17.03-0.78 16.85-0.4 16.7-0.2L16.7-0.2Q16.4 0.3 16.05 0.3L16.05 0.3Q15.15 0.3 15.15-0.95L15.15-0.95Q15.15-3.6 14.5-6.35L14.5-6.35Q11.75-6.75 9.45-7.6L9.45-7.6 2.7 4.45 1.65 5.2Q1.05 5.5 0.7 5.5L0.7 5.5Q0.25 5.5 0.25 5L0.25 5Q0.25 4.7 0.45 4.3L0.45 4.3 7.65-8.35Q4-10 1.8-12.58-0.4-15.15-0.4-18.3L-0.4-18.3Q-0.4-22.45 2.6-22.45L2.6-22.45Q4.55-22.45 7.08-20.55 9.6-18.65 11.75-15.5L11.75-15.5 21.5-32.7Q22.05-33.5 23.45-33.5L23.45-33.5Q23.8-33.5 23.8-33.27 23.8-33.05 12.85-13.6L12.85-13.6Q14.6-10.45 15.4-7.05L15.4-7.05Q16.85-6.85 18.8-6.85L18.8-6.85Q24.45-17.85 34.15-35.2L34.15-35.2Q34.7-36.2 36.2-36.3L36.2-36.3Q36.6-36.3 36.6-36.02 36.6-35.75 36.25-35.15 35.9-34.55 33.2-29.8L33.2-29.8Q23.4-12.75 20.2-6.85L20.2-6.85Q24.4-7.1 27.9-8.8ZM8.15-9.2L8.15-9.2 11-14.2Q9.1-17.05 6.85-18.8 4.6-20.55 3.05-20.55L3.05-20.55Q1.35-20.55 1.35-18.5L1.35-18.5Q1.35-15.55 3.18-13.15 5-10.75 8.15-9.2ZM9.95-8.45L9.95-8.45Q11.95-7.65 14.25-7.25L14.25-7.25Q13.4-10 12.15-12.35L12.15-12.35Q10-8.55 9.95-8.45ZM15.55-6.2L15.55-6.2Q16-4 16-1.8L16-1.8 16.05-1.25Q16.4-2.05 18.35-6L18.35-6Q17.45-6 15.55-6.2Z" opacity="1" transform="matrix(1,0,0,1,0,0)" fill="#f9e17e" class="undefined-text-0" data-fill-palette-color="primary" id="text-0"></path></svg></g></svg></g></svg></g></svg></g></svg></g></svg></g></svg></g><path d="M312.448 41.215L312.448 0 65.248 0 65.248 247.2 312.448 247.2 312.448 205.985 298.671 205.985 298.671 233.423 79.025 233.423 79.025 13.777 298.671 13.777 298.671 41.215Z" fill="#f9e17e" stroke="transparent" data-fill-palette-color="primary"></path></svg></g><defs></defs></svg><rect width="395.52" height="247.2" fill="none" stroke="none" visibility="hidden"></rect></g></svg></g></svg>